<?xml version="1.0" standalone="no"?>
<!DOCTYPE svg PUBLIC "-//W3C//DTD SVG 20010904//EN"
 "http://www.w3.org/TR/2001/REC-SVG-20010904/DTD/svg10.dtd">
<svg version="1.0" xmlns="http://www.w3.org/2000/svg"
 width="64.000000pt" height="64.000000pt" viewBox="0 0 64.000000 64.000000"
 preserveAspectRatio="xMidYMid meet">

<g transform="translate(0.000000,64.000000) scale(0.100000,-0.100000)"
fill="#000000" stroke="none">
<path d="M35 340 c-4 -17 -4 -34 -1 -37 3 -4 6 5 6 18 l1 24 13 -24 c7 -13 15
-20 18 -15 3 5 -3 22 -12 38 l-18 28 -7 -32z"/>
<path d="M142 345 c-15 -34 -15 -36 4 -28 9 3 20 0 26 -8 6 -10 7 -6 2 11 -13
47 -20 53 -32 25z"/>
<path d="M200 355 c-6 -8 -9 -23 -5 -35 10 -31 22 -24 17 10 -4 26 -1 30 18
30 19 0 22 -4 18 -30 -5 -34 7 -41 17 -10 8 25 -10 50 -35 50 -10 0 -23 -7
-30 -15z"/>
<path d="M280 335 c0 -19 5 -35 10 -35 6 0 10 7 10 15 0 21 28 19 32 -2 3 -10
6 -1 9 20 4 26 1 37 -8 37 -7 0 -10 -7 -7 -15 4 -9 0 -15 -10 -15 -9 0 -16 7
-16 15 0 8 -4 15 -10 15 -5 0 -10 -16 -10 -35z"/>
<path d="M438 335 c2 -19 5 -35 7 -35 2 0 5 16 7 35 2 21 0 35 -7 35 -7 0 -9
-14 -7 -35z"/>
<path d="M87 346 c-4 -9 -2 -16 3 -16 5 0 11 -8 13 -17 4 -15 5 -15 6 2 0 11
-3 26 -8 33 -7 11 -9 11 -14 -2z"/>
<path d="M384 345 c3 -8 0 -15 -7 -15 -7 0 -1 -6 13 -13 32 -17 33 -15 19 17
-13 27 -35 37 -25 11z"/>
</g>
</svg>
